# xmcd
#
# Track frame offsets: 
#        217
#        11605
#        24802
#        32677
#        50822
#        70040
#        83972
#        95667
#        105520
#        114715
#
# Disc length: 1665 seconds
#
# Revision: 2
# Processed by: cddbd v1.5.2PL0 Copyright (c) Steve Scherf et al.
# Submitted via: ExactAudioCopy v0.99pb5
#
DISCID=78067f0a
DTITLE=Johnny Winter and Uncle John Turner - Back In Beaumont
DYEAR=1990
DGENRE=Blues
TTITLE0=Made In The Shade
TTITLE1=They Call Me Lazy
TTITLE2=Family Rules
TTITLE3=Ooh Pooh Pah Do
TTITLE4=Drivin' Wheel
TTITLE5=Allons Dancez
TTITLE6=Struggle In Houston
TTITLE7=You're Humbuggin' Me
TTITLE8=Just A Little Bit
TTITLE9=Rainin' Breakdown
EXTD=1981\n\n\nsubmitted by Stamppot
EXTT0=
EXTT1=
EXTT2=
EXTT3=
EXTT4=
EXTT5=
EXTT6=
EXTT7=
EXTT8=
EXTT9=
PLAYORDER=
